<svg width="110" height="18" viewBox="0 0 110 18" xmlns="http://www.w3.org/2000/svg"><title>logo/search-by-algolia/darkbg-simple</title><desc>Created with Sketch.</desc><path d="M81.795 13.174c0 1.455-.372 2.517-1.123 3.193-.75.676-1.895 1.013-3.44 1.013-.564 0-1.736-.109-2.673-.316l.345-1.689c.783.163 1.819.207 2.361.207.86 0 1.473-.174 1.84-.523.367-.349.548-.866.548-1.553v-.349c-.214.104-.493.207-.838.316-.345.104-.745.158-1.194.158-.592 0-1.128-.093-1.616-.278-.487-.185-.909-.458-1.254-.817-.345-.36-.619-.812-.811-1.351-.192-.539-.29-1.504-.29-2.212 0-.665.104-1.498.307-2.054.208-.556.504-1.035.904-1.433.394-.398.876-.703 1.441-.926.564-.223 1.227-.365 1.945-.365.696 0 1.337.087 1.961.191.624.104 1.156.212 1.588.332v8.456zm10.166-4.206c0 .719-.104 1.264-.318 1.858-.214.594-.515 1.101-.904 1.52-.389.42-.854.746-1.402.975-.548.229-1.391.36-1.813.36-.422-.005-1.26-.125-1.802-.36-.542-.234-1.008-.556-1.397-.975-.389-.42-.69-.926-.909-1.52-.219-.594-.329-1.139-.329-1.858 0-.719.099-1.411.318-1.999.219-.588.526-1.09.92-1.509.394-.42.865-.741 1.402-.97.542-.229 1.139-.338 1.786-.338.646 0 1.243.114 1.791.338.548.229 1.019.55 1.402.97.389.42.69.921.909 1.509.23.588.345 1.28.345 1.999zm4.771 4.713c-3.511.016-3.511-2.822-3.511-3.274l-.005-10.068 2.142-.338v10.003c0 .256 0 1.88 1.375 1.885v1.792zm3.774 0h-2.153v-9.196l2.153-.338v9.534zm-1.079-10.542c.718 0 1.304-.578 1.304-1.291 0-.714-.581-1.291-1.304-1.291-.723 0-1.304.578-1.304 1.291 0 .714.586 1.291 1.304 1.291zm6.431 1.013c.707 0 1.304.087 1.786.262.482.174.871.42 1.156.73.285.311.487.735.608 1.182.126.447.186.937.186 1.476v5.481c-.329.071-.827.153-1.495.251-.668.098-1.419.147-2.251.147-.553 0-1.063-.054-1.517-.158-.46-.104-.849-.272-1.178-.507-.323-.234-.575-.534-.761-.904-.181-.37-.274-.893-.274-1.438 0-.523.104-.855.307-1.215.208-.36.487-.654.838-.883.356-.229.761-.392 1.227-.49.466-.098.953-.147 1.457-.147.236 0 .482.016.745.044.263.027.537.076.833.147v-.349c0-.245-.027-.479-.088-.697-.06-.223-.164-.414-.307-.583-.148-.169-.34-.3-.581-.392-.241-.093-.548-.163-.915-.163-.493 0-.942.06-1.353.131-.411.071-.75.153-1.008.245l-.257-1.749c.268-.093.668-.185 1.183-.278.515-.093 1.068-.142 1.66-.142zm-42.117.054c.707 0 1.304.087 1.786.262.482.174.871.42 1.156.73.29.316.487.735.608 1.182.126.447.186.937.186 1.476v5.481c-.329.071-.827.153-1.495.251-.668.098-1.419.147-2.251.147-.553 0-1.063-.054-1.517-.158-.46-.104-.849-.272-1.178-.507-.323-.234-.575-.534-.761-.904-.181-.37-.274-.893-.274-1.438 0-.523.104-.855.307-1.215.208-.36.487-.654.838-.883.356-.229.761-.392 1.227-.49.466-.098.953-.147 1.457-.147.236 0 .482.016.745.044.257.027.537.076.833.147v-.349c0-.245-.027-.479-.088-.697-.06-.223-.164-.414-.307-.583-.148-.169-.34-.3-.581-.392-.241-.093-.548-.163-.915-.163-.493 0-.942.06-1.353.131-.411.071-.75.153-1.008.245l-.257-1.749c.268-.093.668-.185 1.183-.278.515-.098 1.068-.142 1.66-.142zm8.868 9.474c-3.511.016-3.511-2.822-3.511-3.274l-.005-10.068 2.142-.338v10.003c0 .256 0 1.88 1.375 1.885v1.792zm-67.089-2.923c0 .767-.277 1.368-.832 1.805-.554.436-1.319.655-2.294.655-.975 0-1.773-.151-2.394-.454v-1.333c.393.185.811.33 1.253.436.442.106.854.159 1.236.159.558 0 .97-.106 1.236-.318.265-.212.398-.497.398-.855 0-.322-.122-.596-.366-.82-.244-.224-.747-.489-1.51-.796-.786-.318-1.341-.682-1.663-1.091-.322-.409-.484-.9-.484-1.474 0-.72.256-1.286.767-1.699.511-.413 1.197-.619 2.058-.619.826 0 1.647.181 2.465.543l-.448 1.15c-.767-.322-1.451-.484-2.052-.484-.456 0-.802.099-1.038.298-.236.199-.354.461-.354.787 0 .224.047.416.142.575.094.159.25.31.466.451.216.142.605.328 1.168.56.633.263 1.097.509 1.392.737.295.228.511.486.649.773.138.287.206.625.206 1.014zm4.37 2.459c-1.014 0-1.808-.296-2.38-.888-.572-.592-.858-1.407-.858-2.445 0-1.066.265-1.903.796-2.512s1.26-.914 2.188-.914c.861 0 1.541.261 2.041.784.499.523.749 1.242.749 2.159v.749h-4.347c.02.633.191 1.12.513 1.46.322.34.777.51 1.362.51.385 0 .744-.036 1.076-.109.332-.073.689-.194 1.07-.363v1.126c-.338.161-.68.275-1.026.342s-.741.1-1.185.1zm8.192-.118l-.277-.908h-.047c-.315.397-.631.667-.95.811-.318.144-.727.215-1.227.215-.641 0-1.141-.173-1.501-.519-.36-.346-.54-.835-.54-1.468 0-.672.25-1.18.749-1.522.499-.342 1.26-.529 2.282-.56l1.126-.035v-.348c0-.417-.097-.728-.292-.935-.195-.206-.496-.31-.905-.31-.334 0-.655.049-.961.147-.307.098-.602.214-.885.348l-.448-.991c.354-.185.741-.325 1.162-.422.421-.096.818-.144 1.191-.144.83 0 1.456.181 1.878.543.423.362.634.93.634 1.704v4.394h-.991zm6.234-6.641c.279 0 .509.02.69.059l-.136 1.292c-.197-.047-.401-.071-.613-.071-.554 0-1.004.181-1.348.543-.344.362-.516.832-.516 1.41v3.409h-1.386v-6.523h1.085l.183 1.15h.071c.216-.389.498-.698.846-.926.348-.228.722-.342 1.123-.342zm4.529 6.759c-.987 0-1.737-.288-2.25-.864-.513-.576-.77-1.403-.77-2.48 0-1.097.268-1.94.805-2.53.537-.59 1.312-.885 2.327-.885.688 0 1.307.128 1.858.383l-.419 1.115c-.586-.228-1.069-.342-1.451-.342-1.128 0-1.693.749-1.693 2.247 0 .731.141 1.281.422 1.648.281.368.693.551 1.236.551.617 0 1.201-.153 1.752-.46v1.209c-.248.145-.512.25-.793.313s-.622.094-1.023.094zm9.088-.118h-1.392v-4.01c0-.503-.101-.879-.304-1.126-.202-.248-.524-.372-.964-.372-.582 0-1.009.174-1.283.522-.273.348-.41.931-.41 1.749v3.238h-1.386v-9.177h1.386v2.33c0 .374-.024.773-.071 1.197h.088c.189-.315.451-.558.787-.731.336-.173.728-.259 1.177-.259 1.581 0 2.371.796 2.371 2.389v4.252zm8.398-6.641c.814 0 1.448.295 1.902.885.454.59.681 1.417.681 2.483 0 1.069-.23 1.902-.69 2.498-.46.596-1.099.893-1.917.893-.826 0-1.467-.297-1.923-.891h-.094l-.254.773h-1.038v-9.177h1.386v2.182c0 .161-.008.401-.024.72l-.035.607h.059c.44-.649 1.089-.973 1.946-.973zm3.202.118h1.51l1.327 3.698c.201.527.334 1.022.401 1.486h.047c.035-.216.1-.479.195-.787.094-.309.594-1.774 1.498-4.397h1.498l-2.79 7.39c-.507 1.356-1.353 2.035-2.536 2.035-.307 0-.605-.033-.896-.1v-1.097c.208.047.446.071.714.071.668 0 1.138-.387 1.41-1.162l.242-.613-2.619-6.523zm14.394 5.367c.657 0 1.145-.038 1.484-.104v-2.168c-.121-.033-.29-.071-.515-.104-.225-.033-.471-.054-.745-.054-.236 0-.477.016-.718.054-.241.033-.46.098-.652.191s-.351.223-.466.392c-.121.169-.175.267-.175.523 0 .501.175.79.493.981.318.191.75.289 1.293.289zm-17.956-4.352c-.558 0-.96.164-1.206.492-.246.328-.373.878-.38 1.648v.094c0 .794.126 1.369.377 1.725.252.356.662.534 1.233.534.491 0 .864-.195 1.118-.584.254-.389.38-.951.38-1.687 0-1.482-.507-2.223-1.522-2.223zm-29.954 4.565c.503 0 .907-.141 1.212-.422.305-.281.457-.675.457-1.182v-.566l-.837.035c-.653.024-1.127.133-1.424.327-.297.195-.445.492-.445.893 0 .291.086.516.259.675.173.159.432.239.778.239zm-6.381-4.647c-.44 0-.793.14-1.059.419-.265.279-.424.686-.475 1.221h2.961c-.008-.539-.138-.947-.389-1.224-.252-.277-.598-.416-1.038-.416zm96.402 4.375c.657 0 1.145-.038 1.484-.104v-2.168c-.121-.033-.29-.071-.515-.104-.225-.033-.471-.054-.745-.054-.236 0-.477.016-.718.054-.241.033-.46.098-.652.191s-.351.223-.466.392c-.121.169-.175.267-.175.523 0 .501.175.79.493.981.323.196.75.289 1.293.289zm-16.268-2.909c0-.921-.203-1.689-.597-2.223-.394-.539-.948-.806-1.654-.806-.707 0-1.26.267-1.654.806-.394.539-.586 1.302-.586 2.223 0 .932.197 1.558.592 2.098.394.545.948.812 1.654.812.707 0 1.26-.272 1.654-.812.394-.545.592-1.166.592-2.098zm-13.929-.005c0 .893.197 1.885.592 2.299.394.414.904.621 1.528.621.34 0 .663-.049.964-.142.301-.093.542-.202.734-.332v-5.29c-.153-.033-.794-.163-1.413-.18-.778-.022-1.369.294-1.786.801-.411.507-.619 1.395-.619 2.223z" fill="#fff"/></svg>